<?xml version="1.0" standalone="no"?>
<!DOCTYPE svg PUBLIC "-//W3C//DTD SVG 20010904//EN"
 "http://www.w3.org/TR/2001/REC-SVG-20010904/DTD/svg10.dtd">
<svg version="1.0" xmlns="http://www.w3.org/2000/svg"
 width="1323.000000pt" height="1323.000000pt" viewBox="0 0 1323.000000 1323.000000"
 preserveAspectRatio="xMidYMid meet">
<metadata>
Created by potrace 1.11, written by Peter Selinger 2001-2013
</metadata>
<g transform="translate(0.000000,1323.000000) scale(0.100000,-0.100000)"
fill="#000000" stroke="none">
<path d="M5069 13156 c-2 -2 -26 -7 -54 -10 -96 -13 -282 -82 -370 -138 -269
-172 -452 -455 -489 -758 -8 -62 -8 -231 -1 -264 3 -11 7 -32 9 -46 20 -120
52 -203 140 -365 25 -45 108 -144 173 -205 225 -213 530 -314 829 -277 37 5
43 3 47 -16 3 -12 55 -161 117 -332 61 -170 134 -371 160 -445 67 -189 279
-779 357 -995 35 -99 70 -198 77 -220 8 -22 32 -92 55 -155 62 -169 115 -315
196 -545 31 -88 61 -169 65 -180 5 -11 36 -99 70 -195 34 -96 75 -210 91 -253
34 -91 35 -105 12 -114 -75 -28 -310 -225 -421 -354 -131 -150 -270 -379 -323
-531 -14 -42 -16 -42 -74 -27 -22 5 -47 11 -55 13 -8 2 -89 24 -180 49 -91 25
-208 57 -260 71 -52 13 -214 57 -360 96 -146 40 -272 73 -280 75 -8 2 -46 13
-85 24 -38 11 -122 33 -185 50 -135 35 -192 51 -320 86 -52 14 -102 27 -110
29 -21 5 -717 193 -760 206 -19 5 -67 19 -106 30 l-71 20 0 63 c2 218 -52 454
-147 647 -45 92 -68 132 -77 140 -3 3 -11 15 -18 27 -16 31 -108 150 -156 202
-56 62 -201 181 -287 237 -138 91 -382 189 -515 208 -21 3 -67 10 -103 15 -67
10 -338 7 -400 -4 -392 -70 -699 -251 -942 -553 -138 -174 -255 -430 -293
-644 -29 -164 -28 -399 3 -553 91 -453 387 -839 800 -1044 699 -349 1547 -87
1943 599 23 41 44 76 45 78 1 2 96 -22 210 -53 115 -31 216 -58 225 -60 19 -4
515 -137 599 -161 30 -8 111 -30 180 -48 273 -73 325 -87 580 -156 146 -39
315 -84 375 -101 61 -16 151 -40 200 -53 50 -13 178 -47 285 -76 107 -29 199
-56 204 -61 5 -4 10 -43 12 -85 3 -99 12 -171 39 -309 10 -49 45 -165 72 -240
23 -61 118 -256 148 -304 48 -75 70 -106 123 -173 64 -80 162 -183 246 -255
l48 -42 -119 -163 c-205 -279 -653 -889 -723 -983 -36 -49 -111 -151 -166
-225 -55 -74 -128 -173 -162 -220 -74 -102 -355 -485 -382 -520 -10 -14 -58
-79 -106 -145 -47 -66 -92 -126 -98 -133 -10 -10 -26 -7 -82 17 -155 66 -270
86 -479 85 -126 -1 -178 -6 -246 -22 -120 -29 -237 -77 -349 -143 -98 -58
-264 -207 -323 -289 -127 -179 -194 -332 -230 -525 -14 -74 -17 -340 -4 -390
3 -11 12 -51 21 -88 51 -220 201 -467 367 -606 35 -29 74 -62 87 -73 42 -35
196 -118 274 -148 246 -95 527 -103 783 -23 71 23 252 106 265 122 3 3 32 24
65 46 86 58 222 197 288 296 100 152 173 335 194 489 10 71 10 290 1 355 -11
70 -42 177 -76 261 -32 79 -97 200 -112 209 -13 8 -24 -9 288 414 9 13 64 88
122 166 216 294 706 961 740 1007 19 25 43 57 52 70 9 13 102 138 205 279 463
630 432 592 456 585 69 -20 135 -38 152 -41 11 -3 31 -7 45 -10 69 -15 124
-23 195 -30 63 -6 291 -7 325 -1 14 3 47 7 74 11 189 24 474 118 608 202 21
13 40 23 43 23 3 0 40 24 83 53 42 28 82 56 89 60 12 7 40 -16 183 -153 26
-25 74 -69 106 -99 32 -30 115 -107 184 -171 69 -65 141 -133 160 -150 19 -18
88 -83 154 -144 65 -61 137 -128 160 -149 22 -22 100 -94 171 -161 72 -67 161
-151 199 -187 38 -35 88 -82 111 -104 24 -22 93 -87 156 -145 62 -58 138 -129
168 -158 31 -30 89 -84 129 -120 39 -36 72 -70 72 -74 0 -5 -10 -25 -23 -46
-85 -139 -158 -363 -183 -567 -7 -57 -7 -289 0 -322 2 -11 8 -43 11 -70 48
-342 254 -694 541 -924 101 -81 275 -183 374 -218 19 -7 44 -17 55 -22 64 -27
231 -65 333 -76 442 -47 886 109 1198 421 156 157 254 304 344 521 80 191 117
487 90 705 -74 572 -464 1052 -1000 1230 -181 59 -285 75 -490 74 -286 -2
-532 -75 -772 -230 l-67 -43 -33 32 c-18 18 -98 93 -178 167 -79 74 -154 144
-166 155 -45 43 -268 251 -293 275 -39 36 -157 146 -307 286 -71 67 -145 136
-164 154 -84 78 -291 271 -360 336 -41 40 -91 86 -110 104 -19 18 -89 83 -155
145 -67 63 -135 126 -152 142 l-32 28 36 60 c134 225 212 444 247 690 14 99
15 410 2 465 -4 14 -8 41 -11 61 -2 20 -14 74 -25 120 -12 46 -23 91 -25 99
-13 64 -124 311 -179 398 -14 23 -26 45 -26 50 0 4 29 34 65 66 36 32 78 70
94 85 32 29 178 162 255 231 27 25 75 68 105 96 31 28 108 98 171 155 63 57
120 108 126 114 20 19 170 154 192 173 25 22 196 178 261 238 l45 41 65 -42
c148 -95 336 -170 501 -199 106 -18 347 -18 436 0 35 8 79 16 97 19 100 18
290 100 407 176 88 56 205 156 260 220 25 28 53 61 63 71 36 38 129 190 168
274 22 47 51 125 65 172 28 96 28 97 39 162 4 25 9 54 12 65 9 45 4 294 -7
355 -13 71 -13 69 -24 120 -27 123 -109 305 -198 436 -63 94 -227 263 -318
327 -178 125 -353 197 -575 237 -97 18 -321 16 -431 -3 -515 -92 -931 -476
-1064 -983 -11 -43 -22 -98 -26 -123 -3 -25 -7 -57 -10 -71 -5 -33 -6 -249 -1
-275 3 -11 8 -42 12 -70 7 -54 40 -188 54 -220 5 -11 26 -60 47 -109 l38 -89
-50 -46 c-56 -51 -207 -187 -234 -211 -9 -8 -57 -51 -105 -95 -48 -44 -97 -89
-110 -100 -12 -11 -62 -56 -110 -100 -48 -44 -93 -85 -99 -90 -6 -6 -56 -50
-111 -99 -55 -49 -127 -114 -160 -144 -115 -105 -150 -138 -240 -217 -49 -44
-96 -86 -104 -93 -11 -11 -17 -10 -35 6 -42 39 -180 123 -290 176 -334 163
-687 216 -1052 158 -51 -9 -51 -8 -62 22 -20 60 -280 787 -353 986 -20 58 -61
170 -89 250 -28 80 -55 154 -60 165 -4 11 -70 193 -145 405 -174 488 -260 728
-290 810 -40 109 -116 320 -151 420 -18 52 -60 169 -92 259 l-59 164 50 51
c100 103 186 244 232 381 15 44 29 89 31 100 38 223 32 373 -22 545 -115 366
-442 653 -817 716 -40 7 -282 15 -288 10z m239 -606 c97 -30 190 -97 246 -178
100 -144 96 -357 -8 -509 -102 -149 -317 -219 -499 -163 -315 98 -409 505
-172 741 106 106 291 152 433 109z m5863 -2465 c445 -71 723 -503 602 -935
-74 -263 -284 -461 -558 -523 -58 -14 -252 -16 -301 -4 -360 87 -590 371 -592
728 -1 204 71 379 214 523 167 168 408 247 635 211z m-9515 -1664 c351 -71
628 -348 699 -696 13 -66 17 -243 6 -312 -54 -347 -307 -630 -646 -724 -122
-33 -309 -36 -436 -5 -315 75 -560 306 -648 611 -26 91 -32 124 -36 220 -18
444 297 834 734 909 86 14 250 13 327 -3z m5974 -1131 c212 -32 400 -110 559
-235 52 -40 189 -182 229 -235 248 -337 296 -790 127 -1183 -113 -264 -337
-487 -607 -605 -172 -76 -314 -102 -518 -97 -538 14 -995 390 -1115 920 -41
179 -37 382 11 564 87 334 314 610 625 763 96 47 208 83 314 102 94 17 283 20
375 6z m4280 -4310 c311 -52 585 -291 683 -595 37 -114 53 -326 33 -425 -3
-14 -8 -38 -12 -55 -22 -112 -98 -270 -174 -360 -127 -151 -299 -260 -473
-300 -104 -24 -119 -25 -222 -25 -236 -1 -453 88 -621 254 -118 118 -190 240
-236 404 -18 61 -22 105 -23 212 0 74 3 153 7 175 20 115 82 263 152 360 44
61 151 171 189 193 15 9 27 20 27 24 0 4 4 8 9 8 5 0 34 15 64 34 71 42 223
93 307 102 36 3 66 7 68 9 7 6 157 -4 222 -15z m-7685 -1153 c74 -21 100 -33
159 -71 249 -159 342 -485 216 -754 -204 -437 -830 -452 -1056 -26 -51 96 -68
165 -68 279 0 164 53 299 164 413 84 87 206 154 310 169 19 3 37 7 39 9 9 9
189 -6 236 -19z"/>
</g>
</svg>
