<?xml version="1.0" encoding="UTF-8" standalone="no"?>
<svg
   xmlns:dc="http://purl.org/dc/elements/1.1/"
   xmlns:cc="http://creativecommons.org/ns#"
   xmlns:rdf="http://www.w3.org/1999/02/22-rdf-syntax-ns#"
   xmlns:svg="http://www.w3.org/2000/svg"
   xmlns="http://www.w3.org/2000/svg"
   xmlns:sodipodi="http://sodipodi.sourceforge.net/DTD/sodipodi-0.dtd"
   xmlns:inkscape="http://www.inkscape.org/namespaces/inkscape"
   style="isolation:isolate"
   viewBox="0 0 200 120"
   width="200pt"
   height="120pt"
   version="1.1"
   id="svg19"
   sodipodi:docname="innkscape_logo.svg"
   inkscape:version="1.0.1 (0767f8302a, 2020-10-17)">
  <metadata
     id="metadata23">
    <rdf:RDF>
      <cc:Work
         rdf:about="">
        <dc:format>image/svg+xml</dc:format>
        <dc:type
           rdf:resource="http://purl.org/dc/dcmitype/StillImage" />
        <dc:title></dc:title>
      </cc:Work>
    </rdf:RDF>
  </metadata>
  <sodipodi:namedview
     pagecolor="#ffffff"
     bordercolor="#666666"
     borderopacity="1"
     objecttolerance="10"
     gridtolerance="10"
     guidetolerance="10"
     inkscape:pageopacity="0"
     inkscape:pageshadow="2"
     inkscape:window-width="1848"
     inkscape:window-height="1016"
     id="namedview21"
     showgrid="false"
     inkscape:zoom="3.489572"
     inkscape:cx="97.138025"
     inkscape:cy="98.448661"
     inkscape:window-x="1152"
     inkscape:window-y="27"
     inkscape:window-maximized="1"
     inkscape:current-layer="g17" />
  <defs
     id="defs5">
    <clipPath
       id="_clipPath_ZHH4ooGueZkUj5UxkkVlR5K6uo5oWg3d">
      <rect
         width="200"
         height="120"
         id="rect2" />
    </clipPath>
  </defs>
  <g
     clip-path="url(#_clipPath_ZHH4ooGueZkUj5UxkkVlR5K6uo5oWg3d)"
     id="g17">
    <path
       d="m 111.621,84.8 v 0 0 q -3.384,0 -6.372,-1.404 v 0 0 q -2.988,-1.404 -5.148,-3.816 v 0 0 q -2.16,-2.412 -3.42,-5.724 v 0 0 q -1.26,-3.312 -1.26,-7.056 v 0 0 q 0,-3.816 1.26,-7.128 v 0 0 q 1.26,-3.312 3.492,-5.724 v 0 0 q 2.232,-2.412 5.256,-3.816 v 0 0 q 3.024,-1.404 6.48,-1.404 v 0 0 q 3.24,0 6.048,1.26 v 0 0 q 2.808,1.26 4.896,3.636 v 0 -4.464 h 5.256 v 50.184 h -5.256 v -19.728 0 q -2.016,2.52 -4.896,3.852 v 0 0 q -2.88,1.332 -6.336,1.332 z M 100.605,66.728 v 0 0 q 0,5.76 3.528,9.612 v 0 0 q 3.528,3.852 8.784,3.852 v 0 0 q 3.096,0 5.688,-1.224 v 0 0 q 2.592,-1.224 4.248,-3.456 v 0 -17.424 0 q -1.728,-2.232 -4.356,-3.492 v 0 0 q -2.628,-1.26 -5.58,-1.26 v 0 0 q -5.256,0 -8.784,3.816 v 0 0 q -3.528,3.816 -3.528,9.576 z M 138.693,49.16 h 5.328 v 21.168 0 q 0,4.68 2.52,7.416 v 0 0 q 2.52,2.736 6.84,2.736 v 0 0 q 2.88,0 5.256,-1.368 v 0 0 q 2.376,-1.368 3.96,-3.96 v 0 -25.992 h 5.256 v 35.136 h -5.256 v -5.688 0 q -2.016,3.096 -4.824,4.68 v 0 0 q -2.808,1.584 -6.336,1.584 v 0 0 q -5.616,0 -9.18,-3.636 v 0 0 Q 138.693,77.6 138.693,71.84 v 0 z M 54.741,84.296 H 20.757 v -50.4 h 5.544 V 79.4 h 28.44 z"
       fill="#000000"
       id="path7"
       style="fill:#4338ca;fill-opacity:1" />
    <g
       id="g13"
       style="fill:#4338ca;fill-opacity:1">
      <g
         id="g11"
         style="fill:#4338ca;fill-opacity:1">
        <path
           d="m 45.43,62.485 c 0.11,3.292 2.894,5.896 6.186,5.786 2.284,-0.077 4.242,-1.449 5.187,-3.376 l 11.603,3.114 c -0.003,0.1 -0.012,0.198 -0.009,0.3 0.074,2.195 1.139,4.127 2.746,5.395 l -7.147,9.715 c -0.691,-0.347 -1.48,-0.531 -2.302,-0.504 -2.63,0.088 -4.716,2.319 -4.628,4.949 0.088,2.631 2.318,4.717 4.949,4.629 2.63,-0.088 4.716,-2.318 4.628,-4.949 -0.031,-0.933 -0.341,-1.796 -0.833,-2.519 l 7.47,-10.156 c 0.8,0.273 1.648,0.413 2.541,0.383 1.54,-0.052 2.963,-0.595 4.108,-1.467 l 7.868,7.359 c -0.593,0.965 -0.922,2.114 -0.881,3.325 0.11,3.292 2.894,5.896 6.186,5.786 3.292,-0.11 5.896,-2.894 5.786,-6.186 -0.11,-3.292 -2.894,-5.896 -6.186,-5.786 -1.22,0.041 -2.331,0.456 -3.259,1.12 l -7.887,-7.377 c 0.804,-1.205 1.26,-2.646 1.208,-4.198 -0.045,-1.348 -0.464,-2.592 -1.152,-3.65 l 5.344,-4.842 c 0.942,0.694 2.096,1.091 3.349,1.049 2.962,-0.099 5.307,-2.607 5.208,-5.568 -0.099,-2.961 -2.607,-5.306 -5.568,-5.207 -2.961,0.099 -5.306,2.606 -5.207,5.567 0.028,0.845 0.265,1.637 0.64,2.339 l -5.399,4.881 c -1.28,-0.995 -2.9,-1.57 -4.639,-1.512 -0.37,0.013 -0.728,0.064 -1.082,0.13 L 69.199,46.914 c 0.884,-0.801 1.413,-1.973 1.37,-3.248 -0.076,-2.3 -2.03,-4.127 -4.33,-4.05 -2.3,0.077 -4.127,2.03 -4.05,4.33 0.077,2.3 2.03,4.127 4.33,4.05 0.171,-0.006 0.34,-0.029 0.504,-0.054 l 4.978,13.898 c -1.462,0.849 -2.591,2.21 -3.168,3.814 L 57.4,62.572 c 0.007,-0.16 0.007,-0.325 0.002,-0.487 -0.11,-3.292 -2.894,-5.896 -6.186,-5.786 -3.292,0.11 -5.896,2.894 -5.786,6.186 z m 2.394,-0.08 c -0.067,-1.998 1.474,-3.645 3.472,-3.712 1.998,-0.067 3.645,1.474 3.712,3.471 0.066,1.998 -1.474,3.645 -3.472,3.712 -1.998,0.067 -3.645,-1.474 -3.712,-3.471 z M 59.46,87.784 c -0.045,-1.336 0.978,-2.429 2.314,-2.474 1.337,-0.045 2.43,0.978 2.475,2.314 0.044,1.337 -0.978,2.43 -2.315,2.475 -1.336,0.044 -2.429,-0.978 -2.474,-2.315 z m 5.123,-43.918 c -0.033,-1.006 0.73,-1.822 1.736,-1.856 1.006,-0.034 1.822,0.73 1.856,1.736 0.034,1.006 -0.73,1.822 -1.736,1.856 -1.006,0.033 -1.822,-0.73 -1.856,-1.736 z m 6.208,24.363 c -0.088,-2.659 1.97,-4.86 4.629,-4.949 2.659,-0.089 4.86,1.969 4.949,4.628 0.089,2.659 -1.97,4.86 -4.629,4.949 -2.659,0.089 -4.86,-1.969 -4.949,-4.628 z M 87.132,55.097 c -0.056,-1.667 1.226,-3.037 2.893,-3.093 1.667,-0.055 3.037,1.226 3.093,2.893 0.056,1.667 -1.226,3.038 -2.893,3.093 -1.667,0.056 -3.037,-1.225 -3.093,-2.893 z m 2.178,29.292 c -0.067,-1.998 1.474,-3.645 3.472,-3.712 1.997,-0.067 3.645,1.474 3.711,3.472 0.067,1.998 -1.473,3.645 -3.471,3.712 -1.998,0.066 -3.645,-1.474 -3.712,-3.472 z"
           fill="#000000"
           id="path9"
           style="fill:#4338ca;fill-opacity:1" />
      </g>
    </g>
  </g>
</svg>
