<?xml version="1.0" encoding="UTF-8" standalone="no"?>
<!-- Generator: Gravit.io -->
<svg xmlns="http://www.w3.org/2000/svg" xmlns:xlink="http://www.w3.org/1999/xlink" style="isolation:isolate" viewBox="0 0 200 120" width="200pt" height="120pt">
    <defs>
        <clipPath id="_clipPath_ZHH4ooGueZkUj5UxkkVlR5K6uo5oWg3d">
            <rect width="200" height="120" />
        </clipPath>
    </defs>
    <g clip-path="url(#_clipPath_ZHH4ooGueZkUj5UxkkVlR5K6uo5oWg3d)">
        <g>
            <path d=" M 111.621 84.8 L 111.621 84.8 L 111.621 84.8 Q 108.237 84.8 105.249 83.396 L 105.249 83.396 L 105.249 83.396 Q 102.261 81.992 100.101 79.58 L 100.101 79.58 L 100.101 79.58 Q 97.941 77.168 96.681 73.856 L 96.681 73.856 L 96.681 73.856 Q 95.421 70.544 95.421 66.8 L 95.421 66.8 L 95.421 66.8 Q 95.421 62.984 96.681 59.672 L 96.681 59.672 L 96.681 59.672 Q 97.941 56.36 100.173 53.948 L 100.173 53.948 L 100.173 53.948 Q 102.405 51.536 105.429 50.132 L 105.429 50.132 L 105.429 50.132 Q 108.453 48.728 111.909 48.728 L 111.909 48.728 L 111.909 48.728 Q 115.149 48.728 117.957 49.988 L 117.957 49.988 L 117.957 49.988 Q 120.765 51.248 122.853 53.624 L 122.853 53.624 L 122.853 49.16 L 128.109 49.16 L 128.109 99.344 L 122.853 99.344 L 122.853 79.616 L 122.853 79.616 Q 120.837 82.136 117.957 83.468 L 117.957 83.468 L 117.957 83.468 Q 115.077 84.8 111.621 84.8 Z  M 100.605 66.728 L 100.605 66.728 L 100.605 66.728 Q 100.605 72.488 104.133 76.34 L 104.133 76.34 L 104.133 76.34 Q 107.661 80.192 112.917 80.192 L 112.917 80.192 L 112.917 80.192 Q 116.013 80.192 118.605 78.968 L 118.605 78.968 L 118.605 78.968 Q 121.197 77.744 122.853 75.512 L 122.853 75.512 L 122.853 58.088 L 122.853 58.088 Q 121.125 55.856 118.497 54.596 L 118.497 54.596 L 118.497 54.596 Q 115.869 53.336 112.917 53.336 L 112.917 53.336 L 112.917 53.336 Q 107.661 53.336 104.133 57.152 L 104.133 57.152 L 104.133 57.152 Q 100.605 60.968 100.605 66.728 Z  M 138.693 49.16 L 144.021 49.16 L 144.021 70.328 L 144.021 70.328 Q 144.021 75.008 146.541 77.744 L 146.541 77.744 L 146.541 77.744 Q 149.061 80.48 153.381 80.48 L 153.381 80.48 L 153.381 80.48 Q 156.261 80.48 158.637 79.112 L 158.637 79.112 L 158.637 79.112 Q 161.013 77.744 162.597 75.152 L 162.597 75.152 L 162.597 49.16 L 167.853 49.16 L 167.853 84.296 L 162.597 84.296 L 162.597 78.608 L 162.597 78.608 Q 160.581 81.704 157.773 83.288 L 157.773 83.288 L 157.773 83.288 Q 154.965 84.872 151.437 84.872 L 151.437 84.872 L 151.437 84.872 Q 145.821 84.872 142.257 81.236 L 142.257 81.236 L 142.257 81.236 Q 138.693 77.6 138.693 71.84 L 138.693 71.84 L 138.693 49.16 L 138.693 49.16 Z  M 54.741 84.296 L 20.757 84.296 L 20.757 33.896 L 26.301 33.896 L 26.301 79.4 L 54.741 79.4 L 54.741 84.296 L 54.741 84.296 Z " fill="rgb(0,0,0)" />
            <g>
                <g>
                    <path d=" M 45.43 62.485 C 45.54 65.777 48.324 68.381 51.616 68.271 C 53.9 68.194 55.858 66.822 56.803 64.895 L 68.406 68.009 C 68.403 68.109 68.394 68.207 68.397 68.309 C 68.471 70.504 69.536 72.436 71.143 73.704 L 63.996 83.419 C 63.305 83.072 62.516 82.888 61.694 82.915 C 59.064 83.003 56.978 85.234 57.066 87.864 C 57.154 90.495 59.384 92.581 62.015 92.493 C 64.645 92.405 66.731 90.175 66.643 87.544 C 66.612 86.611 66.302 85.748 65.81 85.025 L 73.28 74.869 C 74.08 75.142 74.928 75.282 75.821 75.252 C 77.361 75.2 78.784 74.657 79.929 73.785 L 87.797 81.144 C 87.204 82.109 86.875 83.258 86.916 84.469 C 87.026 87.761 89.81 90.365 93.102 90.255 C 96.394 90.145 98.998 87.361 98.888 84.069 C 98.778 80.777 95.994 78.173 92.702 78.283 C 91.482 78.324 90.371 78.739 89.443 79.403 L 81.556 72.026 C 82.36 70.821 82.816 69.38 82.764 67.828 C 82.719 66.48 82.3 65.236 81.612 64.178 L 86.956 59.336 C 87.898 60.03 89.052 60.427 90.305 60.385 C 93.267 60.286 95.612 57.778 95.513 54.817 C 95.414 51.856 92.906 49.511 89.945 49.61 C 86.984 49.709 84.639 52.216 84.738 55.177 C 84.766 56.022 85.003 56.814 85.378 57.516 L 79.979 62.397 C 78.699 61.402 77.079 60.827 75.34 60.885 C 74.97 60.898 74.612 60.949 74.258 61.015 L 69.199 46.914 C 70.083 46.113 70.612 44.941 70.569 43.666 C 70.493 41.366 68.539 39.539 66.239 39.616 C 63.939 39.693 62.112 41.646 62.189 43.946 C 62.266 46.246 64.219 48.073 66.519 47.996 C 66.69 47.99 66.859 47.967 67.023 47.942 L 72.001 61.84 C 70.539 62.689 69.41 64.05 68.833 65.654 L 57.4 62.572 C 57.407 62.412 57.407 62.247 57.402 62.085 C 57.292 58.793 54.508 56.189 51.216 56.299 C 47.924 56.409 45.32 59.193 45.43 62.485 L 45.43 62.485 Z  M 47.824 62.405 C 47.757 60.407 49.298 58.76 51.296 58.693 C 53.294 58.626 54.941 60.167 55.008 62.164 C 55.074 64.162 53.534 65.809 51.536 65.876 C 49.538 65.943 47.891 64.402 47.824 62.405 Z  M 59.46 87.784 C 59.415 86.448 60.438 85.355 61.774 85.31 C 63.111 85.265 64.204 86.288 64.249 87.624 C 64.293 88.961 63.271 90.054 61.934 90.099 C 60.598 90.143 59.505 89.121 59.46 87.784 Z  M 64.583 43.866 C 64.55 42.86 65.313 42.044 66.319 42.01 C 67.325 41.976 68.141 42.74 68.175 43.746 C 68.209 44.752 67.445 45.568 66.439 45.602 C 65.433 45.635 64.617 44.872 64.583 43.866 Z  M 70.791 68.229 C 70.703 65.57 72.761 63.369 75.42 63.28 C 78.079 63.191 80.28 65.249 80.369 67.908 C 80.458 70.567 78.399 72.768 75.74 72.857 C 73.081 72.946 70.88 70.888 70.791 68.229 Z  M 87.132 55.097 C 87.076 53.43 88.358 52.06 90.025 52.004 C 91.692 51.949 93.062 53.23 93.118 54.897 C 93.174 56.564 91.892 57.935 90.225 57.99 C 88.558 58.046 87.188 56.765 87.132 55.097 Z  M 89.31 84.389 C 89.243 82.391 90.784 80.744 92.782 80.677 C 94.779 80.61 96.427 82.151 96.493 84.149 C 96.56 86.147 95.02 87.794 93.022 87.861 C 91.024 87.927 89.377 86.387 89.31 84.389 Z " fill="rgb(0,0,0)" />
                </g>
            </g>
        </g>
    </g>
</svg>